<svg xmlns="http://www.w3.org/2000/svg" xmlns:xlink="http://www.w3.org/1999/xlink" width="133" height="133" viewBox="0 0 133 133"><defs><path id="ef9fa" d="M565.5 921c36.727 0 66.5 29.773 66.5 66.5 0 36.727-29.773 66.5-66.5 66.5-36.727 0-66.5-29.773-66.5-66.5 0-36.727 29.773-66.5 66.5-66.5z"/><path id="ef9fb" d="M563.366 950.018c2.766 0 5.024 1.911 5.519 4.523h.145l18.135 20.4h-9.075l-12.52-14.094c-.69.287-1.417.5-2.204.5-.774 0-1.516-.213-2.19-.5l-12.535 14.094h-9.06l18.12-20.4h.144c.51-2.612 2.768-4.523 5.52-4.523zm-32.845 29.449h67.972a4.519 4.519 0 0 1 4.524 4.537v2.265c0 2.391-1.837 4.272-4.17 4.462l-7.16 24.99c-2.269 4.535-4.522 4.535-6.792 4.535h-40.792c-2.253 0-4.523 0-6.79-4.535l-7.146-24.99c-2.349-.19-4.184-2.07-4.184-4.462v-2.265a4.529 4.529 0 0 1 4.538-4.537zm12.745 11.328c-2.513 0-4.15 1.892-3.62 4.249l3.187 14.096c.532 2.367 3.01 4.313 5.519 4.313h1.14c2.513 0 4.14-1.946 3.607-4.313l-3.186-14.096c-.53-2.357-3.008-4.249-5.52-4.249zm21.241 0a4.529 4.529 0 0 0-4.537 4.538v13.594a4.519 4.519 0 0 0 4.537 4.526 4.509 4.509 0 0 0 4.523-4.526v-13.594a4.519 4.519 0 0 0-4.523-4.538zm20.1 0c-2.512 0-4.988 1.892-5.52 4.249l-3.186 14.096c-.53 2.367 1.096 4.313 3.605 4.313h1.14c2.513 0 4.989-1.946 5.521-4.313l3.186-14.096c.53-2.357-1.095-4.249-3.605-4.249z"/></defs><g><g transform="translate(-499 -921)"><use fill="#fff" xlink:href="#ef9fa"/></g><g transform="translate(-499 -921)"><use fill="#55a1ff" xlink:href="#ef9fb"/></g></g></svg>