<svg xmlns="http://www.w3.org/2000/svg" xmlns:xlink="http://www.w3.org/1999/xlink" width="133" height="133" viewBox="0 0 133 133"><defs><path id="rta0a" d="M774.5 921c36.727 0 66.5 29.773 66.5 66.5 0 36.727-29.773 66.5-66.5 66.5-36.727 0-66.5-29.773-66.5-66.5 0-36.727 29.773-66.5 66.5-66.5z"/><path id="rta0b" d="M798.285 988.304c0 5.562-4.507 10.08-10.068 10.08-5.564 0-10.077-4.518-10.077-10.08 0-5.564 4.513-10.077 10.077-10.077 5.56 0 10.068 4.513 10.068 10.077zm-5.504-.119a4.211 4.211 0 0 0-4.211-4.212 4.21 4.21 0 0 0-4.213 4.212 4.21 4.21 0 0 0 4.213 4.213 4.211 4.211 0 0 0 4.211-4.213zm16.592-22.506a2.64 2.64 0 0 1 2.632 2.632v40.817a2.64 2.64 0 0 1-2.632 2.633h-70.746a2.64 2.64 0 0 1-2.632-2.632V968.31a2.64 2.64 0 0 1 2.632-2.632h3.268c1.448 0 2.632-.827 2.632-1.839 0-1.011 1.184-1.839 2.632-1.839h9.71c1.447 0 2.631.828 2.631 1.84 0 1.01 1.185 1.838 2.632 1.838zm-49.873 9.434a2.64 2.64 0 0 0-2.632-2.632h-9.71a2.64 2.64 0 0 0-2.631 2.632v1.621a2.64 2.64 0 0 0 2.632 2.632h9.71a2.64 2.64 0 0 0 2.631-2.632zm44.316 13.19c0-8.61-6.983-15.6-15.6-15.6-8.612 0-15.602 6.99-15.602 15.6 0 8.619 6.99 15.6 15.603 15.6 8.616 0 15.6-6.981 15.6-15.6z"/></defs><g><g transform="translate(-708 -921)"><use fill="#fff" xlink:href="#rta0a"/></g><g transform="translate(-708 -921)"><use fill="#55a1ff" xlink:href="#rta0b"/></g></g></svg>