<svg xmlns="http://www.w3.org/2000/svg" xmlns:xlink="http://www.w3.org/1999/xlink" width="133" height="133" viewBox="0 0 133 133"><defs><path id="of1fa" d="M982.5 921c36.727 0 66.5 29.773 66.5 66.5 0 36.727-29.773 66.5-66.5 66.5-36.727 0-66.5-29.773-66.5-66.5 0-36.727 29.773-66.5 66.5-66.5z"/><path id="of1fb" d="M1012.46 1018.564l-1.959 1.96a5.038 5.038 0 0 1-7.125 0l-12.327-12.327a28.65 28.65 0 0 1-15.262 4.376c-15.899 0-28.787-12.888-28.787-28.786C947 967.888 959.888 955 975.787 955c15.898 0 28.786 12.888 28.786 28.787a28.65 28.65 0 0 1-4.425 15.34l12.313 12.312a5.038 5.038 0 0 1 0 7.125zm-36.673-55.597c-11.499 0-20.82 9.321-20.82 20.82 0 11.498 9.321 20.82 20.82 20.82 11.498 0 20.82-9.322 20.82-20.82 0-11.499-9.322-20.82-20.82-20.82z"/></defs><g><g transform="translate(-916 -921)"><use fill="#fff" xlink:href="#of1fa"/></g><g transform="translate(-916 -921)"><use fill="#55a1ff" xlink:href="#of1fb"/></g></g></svg>